<mxfile host="app.diagrams.net" modified="2022-06-28T13:26:43.291Z" agent="5.0 (Windows NT 10.0; Win64; x64) AppleWebKit/537.36 (KHTML, like Gecko) Chrome/102.0.0.0 Safari/537.36" etag="OxItvyPXxUSLNsqKw-Ae" version="20.0.3" type="github" pages="2">
  <diagram name="regist" id="74e2e168-ea6b-b213-b513-2b3c1d86103e">
    <mxGraphModel dx="1718" dy="935" grid="1" gridSize="10" guides="1" tooltips="1" connect="1" arrows="1" fold="1" page="1" pageScale="1" pageWidth="1100" pageHeight="850" background="none" math="0" shadow="1">
      <root>
        <mxCell id="0" />
        <mxCell id="1" parent="0" />
        <mxCell id="77e6c97f196da883-1" value="&lt;div&gt;&lt;span style=&quot;font-size: 8px;&quot;&gt;Customer registration&lt;/span&gt;&lt;/div&gt;" style="swimlane;html=1;childLayout=stackLayout;startSize=20;rounded=0;shadow=0;labelBackgroundColor=none;strokeWidth=1;fontFamily=Verdana;fontSize=8;align=center;" parent="1" vertex="1">
          <mxGeometry width="1100" height="2550" as="geometry">
            <mxRectangle x="70" y="40" width="190" height="30" as="alternateBounds" />
          </mxGeometry>
        </mxCell>
        <mxCell id="77e6c97f196da883-2" value="OCMB APP" style="swimlane;html=1;startSize=20;" parent="77e6c97f196da883-1" vertex="1">
          <mxGeometry y="20" width="390" height="2530" as="geometry">
            <mxRectangle x="40" y="20" width="40" height="730" as="alternateBounds" />
          </mxGeometry>
        </mxCell>
        <mxCell id="Akt3h3AdRs0SpvcwCt5--16" value="&lt;div&gt;&quot;Register for digibank&quot;&amp;nbsp;&lt;span style=&quot;background-color: initial;&quot;&gt;button&lt;/span&gt;&lt;/div&gt;" style="rounded=1;whiteSpace=wrap;html=1;" parent="77e6c97f196da883-2" vertex="1">
          <mxGeometry x="70" y="57" width="160" height="60" as="geometry" />
        </mxCell>
        <mxCell id="HXrzVIYZJ7QfgkGZ6RUa-13" style="edgeStyle=orthogonalEdgeStyle;rounded=0;orthogonalLoop=1;jettySize=auto;html=1;exitX=0.5;exitY=1;exitDx=0;exitDy=0;entryX=0.5;entryY=0;entryDx=0;entryDy=0;" edge="1" parent="77e6c97f196da883-2" source="Akt3h3AdRs0SpvcwCt5--24" target="HXrzVIYZJ7QfgkGZ6RUa-2">
          <mxGeometry relative="1" as="geometry" />
        </mxCell>
        <mxCell id="Akt3h3AdRs0SpvcwCt5--24" value="&lt;div&gt;&quot;Registration info&quot; screen&lt;/div&gt;" style="whiteSpace=wrap;html=1;rounded=1;" parent="77e6c97f196da883-2" vertex="1">
          <mxGeometry x="70" y="170" width="160" height="60" as="geometry" />
        </mxCell>
        <mxCell id="Akt3h3AdRs0SpvcwCt5--60" value="error message" style="rounded=1;whiteSpace=wrap;html=1;" parent="77e6c97f196da883-2" vertex="1">
          <mxGeometry x="80" y="872" width="160" height="60" as="geometry" />
        </mxCell>
        <mxCell id="Akt3h3AdRs0SpvcwCt5--62" value="&quot;Personal details&quot; screen" style="whiteSpace=wrap;html=1;" parent="77e6c97f196da883-2" vertex="1">
          <mxGeometry x="80" y="1389" width="160" height="60" as="geometry" />
        </mxCell>
        <mxCell id="Akt3h3AdRs0SpvcwCt5--104" value="&lt;div&gt;regist account/customer successful&lt;/div&gt;" style="whiteSpace=wrap;html=1;rounded=0;" parent="77e6c97f196da883-2" vertex="1">
          <mxGeometry x="75" y="2441" width="120" height="60" as="geometry" />
        </mxCell>
        <mxCell id="HXrzVIYZJ7QfgkGZ6RUa-14" style="edgeStyle=orthogonalEdgeStyle;rounded=0;orthogonalLoop=1;jettySize=auto;html=1;exitX=0.5;exitY=1;exitDx=0;exitDy=0;entryX=0.5;entryY=0;entryDx=0;entryDy=0;" edge="1" parent="77e6c97f196da883-2" source="HXrzVIYZJ7QfgkGZ6RUa-2" target="HXrzVIYZJ7QfgkGZ6RUa-3">
          <mxGeometry relative="1" as="geometry" />
        </mxCell>
        <mxCell id="HXrzVIYZJ7QfgkGZ6RUa-2" value="&lt;div&gt;&quot;Terms and Conditions&quot;&lt;/div&gt;&lt;div&gt;screen&lt;/div&gt;" style="whiteSpace=wrap;html=1;rounded=1;" vertex="1" parent="77e6c97f196da883-2">
          <mxGeometry x="70" y="290" width="160" height="60" as="geometry" />
        </mxCell>
        <mxCell id="HXrzVIYZJ7QfgkGZ6RUa-15" style="edgeStyle=orthogonalEdgeStyle;rounded=0;orthogonalLoop=1;jettySize=auto;html=1;exitX=0.5;exitY=1;exitDx=0;exitDy=0;entryX=0.5;entryY=0;entryDx=0;entryDy=0;" edge="1" parent="77e6c97f196da883-2" source="HXrzVIYZJ7QfgkGZ6RUa-3" target="HXrzVIYZJ7QfgkGZ6RUa-4">
          <mxGeometry relative="1" as="geometry" />
        </mxCell>
        <mxCell id="HXrzVIYZJ7QfgkGZ6RUa-3" value="&lt;div&gt;&quot;Declarations&quot; screen&lt;/div&gt;" style="whiteSpace=wrap;html=1;rounded=1;" vertex="1" parent="77e6c97f196da883-2">
          <mxGeometry x="70" y="410" width="160" height="60" as="geometry" />
        </mxCell>
        <mxCell id="HXrzVIYZJ7QfgkGZ6RUa-4" value="&lt;div&gt;&quot;Contact info&quot; screen&lt;/div&gt;" style="whiteSpace=wrap;html=1;rounded=1;" vertex="1" parent="77e6c97f196da883-2">
          <mxGeometry x="70" y="540" width="160" height="60" as="geometry" />
        </mxCell>
        <mxCell id="HXrzVIYZJ7QfgkGZ6RUa-21" value="&lt;div&gt;&quot;sms&amp;nbsp;verification&quot; screen&lt;/div&gt;" style="whiteSpace=wrap;html=1;rounded=1;" vertex="1" parent="77e6c97f196da883-2">
          <mxGeometry x="80" y="680" width="160" height="60" as="geometry" />
        </mxCell>
        <mxCell id="HXrzVIYZJ7QfgkGZ6RUa-63" value="&quot;Create Account&quot; screen" style="whiteSpace=wrap;html=1;fillColor=#FFFFFF;strokeColor=#000000;" vertex="1" parent="77e6c97f196da883-2">
          <mxGeometry x="80" y="1090" width="160" height="60" as="geometry" />
        </mxCell>
        <mxCell id="HXrzVIYZJ7QfgkGZ6RUa-71" value="error message" style="rounded=1;whiteSpace=wrap;html=1;" vertex="1" parent="77e6c97f196da883-2">
          <mxGeometry x="80" y="1259" width="160" height="60" as="geometry" />
        </mxCell>
        <mxCell id="HXrzVIYZJ7QfgkGZ6RUa-77" value="&quot;Address Details&quot; screen" style="rounded=1;whiteSpace=wrap;html=1;strokeColor=#000000;fillColor=#FFFFFF;" vertex="1" parent="77e6c97f196da883-2">
          <mxGeometry x="80" y="1639" width="160" height="60" as="geometry" />
        </mxCell>
        <mxCell id="HXrzVIYZJ7QfgkGZ6RUa-81" value="&quot;Review your appliction details&quot; screen" style="rounded=1;whiteSpace=wrap;html=1;strokeColor=#000000;fillColor=#FFFFFF;" vertex="1" parent="77e6c97f196da883-2">
          <mxGeometry x="90" y="1829" width="160" height="60" as="geometry" />
        </mxCell>
        <mxCell id="HXrzVIYZJ7QfgkGZ6RUa-87" value="post" style="edgeLabel;html=1;align=center;verticalAlign=middle;resizable=0;points=[];" vertex="1" connectable="0" parent="77e6c97f196da883-2">
          <mxGeometry x="350" y="1759" as="geometry" />
        </mxCell>
        <mxCell id="HXrzVIYZJ7QfgkGZ6RUa-88" value="/v1/my-applications" style="edgeLabel;html=1;align=center;verticalAlign=middle;resizable=0;points=[];" vertex="1" connectable="0" parent="77e6c97f196da883-2">
          <mxGeometry x="360.1666666666665" y="1778.0000000000005" as="geometry" />
        </mxCell>
        <mxCell id="HXrzVIYZJ7QfgkGZ6RUa-108" value="post" style="edgeLabel;html=1;align=center;verticalAlign=middle;resizable=0;points=[];" vertex="1" connectable="0" parent="77e6c97f196da883-2">
          <mxGeometry x="350" y="1939" as="geometry" />
        </mxCell>
        <mxCell id="HXrzVIYZJ7QfgkGZ6RUa-109" value="/v1/my-applications" style="edgeLabel;html=1;align=center;verticalAlign=middle;resizable=0;points=[];" vertex="1" connectable="0" parent="77e6c97f196da883-2">
          <mxGeometry x="360.1666666666665" y="1958.0000000000005" as="geometry" />
        </mxCell>
        <mxCell id="HXrzVIYZJ7QfgkGZ6RUa-30" style="edgeStyle=orthogonalEdgeStyle;rounded=0;orthogonalLoop=1;jettySize=auto;html=1;exitX=0;exitY=0.5;exitDx=0;exitDy=0;" edge="1" parent="77e6c97f196da883-1" source="HXrzVIYZJ7QfgkGZ6RUa-29" target="Akt3h3AdRs0SpvcwCt5--60">
          <mxGeometry relative="1" as="geometry" />
        </mxCell>
        <mxCell id="HXrzVIYZJ7QfgkGZ6RUa-31" value="&lt;div&gt;&lt;span style=&quot;font-size: 11px;&quot;&gt;Validation failed&lt;/span&gt;&lt;/div&gt;" style="edgeLabel;html=1;align=center;verticalAlign=middle;resizable=0;points=[];" vertex="1" connectable="0" parent="HXrzVIYZJ7QfgkGZ6RUa-30">
          <mxGeometry x="-0.083" relative="1" as="geometry">
            <mxPoint as="offset" />
          </mxGeometry>
        </mxCell>
        <mxCell id="Akt3h3AdRs0SpvcwCt5--63" value="" style="edgeStyle=orthogonalEdgeStyle;rounded=0;orthogonalLoop=1;jettySize=auto;html=1;" parent="77e6c97f196da883-1" source="Akt3h3AdRs0SpvcwCt5--33" target="Akt3h3AdRs0SpvcwCt5--62" edge="1">
          <mxGeometry relative="1" as="geometry" />
        </mxCell>
        <mxCell id="Akt3h3AdRs0SpvcwCt5--90" style="edgeStyle=orthogonalEdgeStyle;rounded=0;orthogonalLoop=1;jettySize=auto;html=1;exitX=1;exitY=0.5;exitDx=0;exitDy=0;entryX=0;entryY=0.5;entryDx=0;entryDy=0;" parent="77e6c97f196da883-1" source="Akt3h3AdRs0SpvcwCt5--81" target="Akt3h3AdRs0SpvcwCt5--85" edge="1">
          <mxGeometry relative="1" as="geometry" />
        </mxCell>
        <mxCell id="GS4V8Wg4BXqWyx1amGgQ-1" value="POST" style="edgeLabel;html=1;align=center;verticalAlign=middle;resizable=0;points=[];labelBackgroundColor=default;" vertex="1" connectable="0" parent="Akt3h3AdRs0SpvcwCt5--90">
          <mxGeometry x="-0.6065" relative="1" as="geometry">
            <mxPoint x="98" y="-9" as="offset" />
          </mxGeometry>
        </mxCell>
        <mxCell id="Akt3h3AdRs0SpvcwCt5--92" value="&lt;span style=&quot;color: rgb(56, 66, 72); font-family: Lato; font-size: 13px; text-align: start;&quot;&gt;/passport&lt;/span&gt;&lt;span style=&quot;color: rgb(56, 66, 72); font-family: Lato; font-size: 13px; text-align: start;&quot;&gt;/v1/oauth2/token&lt;/span&gt;" style="edgeLabel;html=1;align=center;verticalAlign=middle;resizable=0;points=[];labelBackgroundColor=default;" parent="Akt3h3AdRs0SpvcwCt5--90" vertex="1" connectable="0">
          <mxGeometry x="-0.1875" y="1" relative="1" as="geometry">
            <mxPoint x="33" y="12" as="offset" />
          </mxGeometry>
        </mxCell>
        <mxCell id="Akt3h3AdRs0SpvcwCt5--97" style="edgeStyle=orthogonalEdgeStyle;rounded=0;orthogonalLoop=1;jettySize=auto;html=1;exitX=0.5;exitY=1;exitDx=0;exitDy=0;entryX=1;entryY=0.5;entryDx=0;entryDy=0;" parent="77e6c97f196da883-1" source="Akt3h3AdRs0SpvcwCt5--85" target="Akt3h3AdRs0SpvcwCt5--94" edge="1">
          <mxGeometry relative="1" as="geometry" />
        </mxCell>
        <mxCell id="2Ceq-H6tFANikrGCOVqs-38" value="response token" style="edgeLabel;html=1;align=center;verticalAlign=middle;resizable=0;points=[];" parent="Akt3h3AdRs0SpvcwCt5--97" vertex="1" connectable="0">
          <mxGeometry x="0.0685" y="2" relative="1" as="geometry">
            <mxPoint as="offset" />
          </mxGeometry>
        </mxCell>
        <mxCell id="Akt3h3AdRs0SpvcwCt5--103" style="edgeStyle=orthogonalEdgeStyle;rounded=0;orthogonalLoop=1;jettySize=auto;html=1;exitX=0.5;exitY=1;exitDx=0;exitDy=0;entryX=1;entryY=0.5;entryDx=0;entryDy=0;" parent="77e6c97f196da883-1" source="Akt3h3AdRs0SpvcwCt5--98" target="Akt3h3AdRs0SpvcwCt5--101" edge="1">
          <mxGeometry relative="1" as="geometry" />
        </mxCell>
        <mxCell id="2Ceq-H6tFANikrGCOVqs-41" value="response accountid" style="edgeLabel;html=1;align=center;verticalAlign=middle;resizable=0;points=[];" parent="Akt3h3AdRs0SpvcwCt5--103" vertex="1" connectable="0">
          <mxGeometry x="0.1715" y="1" relative="1" as="geometry">
            <mxPoint as="offset" />
          </mxGeometry>
        </mxCell>
        <mxCell id="Akt3h3AdRs0SpvcwCt5--105" value="" style="edgeStyle=orthogonalEdgeStyle;rounded=0;orthogonalLoop=1;jettySize=auto;html=1;" parent="77e6c97f196da883-1" source="Akt3h3AdRs0SpvcwCt5--101" target="Akt3h3AdRs0SpvcwCt5--104" edge="1">
          <mxGeometry relative="1" as="geometry" />
        </mxCell>
        <mxCell id="HXrzVIYZJ7QfgkGZ6RUa-6" style="edgeStyle=orthogonalEdgeStyle;rounded=0;orthogonalLoop=1;jettySize=auto;html=1;exitX=1;exitY=0.5;exitDx=0;exitDy=0;" edge="1" parent="77e6c97f196da883-1" source="HXrzVIYZJ7QfgkGZ6RUa-4">
          <mxGeometry relative="1" as="geometry">
            <mxPoint x="500" y="590" as="targetPoint" />
          </mxGeometry>
        </mxCell>
        <mxCell id="HXrzVIYZJ7QfgkGZ6RUa-16" value="Post" style="edgeLabel;html=1;align=center;verticalAlign=middle;resizable=0;points=[];" vertex="1" connectable="0" parent="HXrzVIYZJ7QfgkGZ6RUa-6">
          <mxGeometry x="-0.1386" y="-2" relative="1" as="geometry">
            <mxPoint y="-12" as="offset" />
          </mxGeometry>
        </mxCell>
        <mxCell id="HXrzVIYZJ7QfgkGZ6RUa-19" value="/v1/sms/otp" style="edgeLabel;html=1;align=center;verticalAlign=middle;resizable=0;points=[];" vertex="1" connectable="0" parent="HXrzVIYZJ7QfgkGZ6RUa-6">
          <mxGeometry x="0.3627" y="-2" relative="1" as="geometry">
            <mxPoint x="-70" y="8" as="offset" />
          </mxGeometry>
        </mxCell>
        <mxCell id="77e6c97f196da883-4" value="OCMB API" style="swimlane;html=1;startSize=20;dashed=1;" parent="77e6c97f196da883-1" vertex="1">
          <mxGeometry x="390" y="20" width="370" height="2530" as="geometry">
            <mxRectangle x="80" y="20" width="40" height="730" as="alternateBounds" />
          </mxGeometry>
        </mxCell>
        <mxCell id="Akt3h3AdRs0SpvcwCt5--19" value="&lt;div&gt;Query &quot;customer onboarding application form&quot;&lt;/div&gt;" style="rounded=1;whiteSpace=wrap;html=1;" parent="77e6c97f196da883-4" vertex="1">
          <mxGeometry x="111" y="57" width="169" height="60" as="geometry" />
        </mxCell>
        <mxCell id="Akt3h3AdRs0SpvcwCt5--33" value="create mobile user" style="whiteSpace=wrap;html=1;" parent="77e6c97f196da883-4" vertex="1">
          <mxGeometry x="106" y="1389" width="120" height="60" as="geometry" />
        </mxCell>
        <mxCell id="Akt3h3AdRs0SpvcwCt5--71" value="save data" style="rounded=1;whiteSpace=wrap;html=1;" parent="77e6c97f196da883-4" vertex="1">
          <mxGeometry x="106" y="1509" width="120" height="60" as="geometry" />
        </mxCell>
        <mxCell id="Akt3h3AdRs0SpvcwCt5--96" style="edgeStyle=orthogonalEdgeStyle;rounded=0;orthogonalLoop=1;jettySize=auto;html=1;exitX=0.5;exitY=1;exitDx=0;exitDy=0;entryX=0.5;entryY=0;entryDx=0;entryDy=0;" parent="77e6c97f196da883-4" source="Akt3h3AdRs0SpvcwCt5--81" target="Akt3h3AdRs0SpvcwCt5--94" edge="1">
          <mxGeometry relative="1" as="geometry" />
        </mxCell>
        <mxCell id="2Ceq-H6tFANikrGCOVqs-37" value="has token" style="edgeLabel;html=1;align=center;verticalAlign=middle;resizable=0;points=[];" parent="Akt3h3AdRs0SpvcwCt5--96" vertex="1" connectable="0">
          <mxGeometry x="-0.3333" y="-1" relative="1" as="geometry">
            <mxPoint as="offset" />
          </mxGeometry>
        </mxCell>
        <mxCell id="Akt3h3AdRs0SpvcwCt5--81" value="&lt;div&gt;Token verification&lt;/div&gt;" style="rhombus;whiteSpace=wrap;html=1;" parent="77e6c97f196da883-4" vertex="1">
          <mxGeometry x="131" y="2049" width="80" height="80" as="geometry" />
        </mxCell>
        <mxCell id="Akt3h3AdRs0SpvcwCt5--94" value="get token" style="rounded=0;whiteSpace=wrap;html=1;" parent="77e6c97f196da883-4" vertex="1">
          <mxGeometry x="111" y="2208" width="120" height="60" as="geometry" />
        </mxCell>
        <mxCell id="Akt3h3AdRs0SpvcwCt5--101" value="update user info" style="whiteSpace=wrap;html=1;rounded=0;" parent="77e6c97f196da883-4" vertex="1">
          <mxGeometry x="111" y="2441" width="120" height="60" as="geometry" />
        </mxCell>
        <mxCell id="2Ceq-H6tFANikrGCOVqs-29" style="edgeStyle=orthogonalEdgeStyle;rounded=0;orthogonalLoop=1;jettySize=auto;html=1;exitX=0.5;exitY=1;exitDx=0;exitDy=0;" parent="77e6c97f196da883-4" edge="1">
          <mxGeometry relative="1" as="geometry">
            <mxPoint x="171" y="10" as="sourcePoint" />
            <mxPoint x="171" y="10" as="targetPoint" />
          </mxGeometry>
        </mxCell>
        <mxCell id="HXrzVIYZJ7QfgkGZ6RUa-18" value="Send otp" style="whiteSpace=wrap;html=1;rounded=1;" vertex="1" parent="77e6c97f196da883-4">
          <mxGeometry x="111" y="540" width="169" height="60" as="geometry" />
        </mxCell>
        <mxCell id="HXrzVIYZJ7QfgkGZ6RUa-29" value="Check sms code" style="rhombus;whiteSpace=wrap;html=1;strokeColor=#000000;fillColor=#FFFFFF;" vertex="1" parent="77e6c97f196da883-4">
          <mxGeometry x="155.5" y="862" width="80" height="80" as="geometry" />
        </mxCell>
        <mxCell id="HXrzVIYZJ7QfgkGZ6RUa-59" value="Query result" style="rhombus;whiteSpace=wrap;html=1;dashed=1;strokeColor=#FF0000;fillColor=#FFFFFF;" vertex="1" parent="77e6c97f196da883-4">
          <mxGeometry x="155.5" y="990" width="80" height="80" as="geometry" />
        </mxCell>
        <mxCell id="HXrzVIYZJ7QfgkGZ6RUa-75" style="edgeStyle=orthogonalEdgeStyle;rounded=0;orthogonalLoop=1;jettySize=auto;html=1;exitX=1;exitY=0.5;exitDx=0;exitDy=0;entryX=1;entryY=0.5;entryDx=0;entryDy=0;" edge="1" parent="77e6c97f196da883-4" source="HXrzVIYZJ7QfgkGZ6RUa-70" target="Akt3h3AdRs0SpvcwCt5--33">
          <mxGeometry relative="1" as="geometry" />
        </mxCell>
        <mxCell id="HXrzVIYZJ7QfgkGZ6RUa-76" value="userName not exists" style="edgeLabel;html=1;align=center;verticalAlign=middle;resizable=0;points=[];" vertex="1" connectable="0" parent="HXrzVIYZJ7QfgkGZ6RUa-75">
          <mxGeometry x="-0.0921" y="-1" relative="1" as="geometry">
            <mxPoint as="offset" />
          </mxGeometry>
        </mxCell>
        <mxCell id="HXrzVIYZJ7QfgkGZ6RUa-70" value="userName exists" style="rhombus;whiteSpace=wrap;html=1;strokeColor=#000000;fillColor=#FFFFFF;" vertex="1" parent="77e6c97f196da883-4">
          <mxGeometry x="155.5" y="1160" width="80" height="80" as="geometry" />
        </mxCell>
        <mxCell id="HXrzVIYZJ7QfgkGZ6RUa-79" value="save data" style="rounded=1;whiteSpace=wrap;html=1;" vertex="1" parent="77e6c97f196da883-4">
          <mxGeometry x="111" y="1739" width="120" height="60" as="geometry" />
        </mxCell>
        <mxCell id="HXrzVIYZJ7QfgkGZ6RUa-106" value="save data" style="rounded=1;whiteSpace=wrap;html=1;" vertex="1" parent="77e6c97f196da883-4">
          <mxGeometry x="111" y="1919" width="120" height="60" as="geometry" />
        </mxCell>
        <mxCell id="HXrzVIYZJ7QfgkGZ6RUa-124" style="edgeStyle=orthogonalEdgeStyle;rounded=0;jumpStyle=line;orthogonalLoop=1;jettySize=auto;html=1;exitX=0.5;exitY=1;exitDx=0;exitDy=0;entryX=0.5;entryY=0;entryDx=0;entryDy=0;startArrow=none;startFill=0;endArrow=blockThin;endFill=1;" edge="1" parent="77e6c97f196da883-4" source="HXrzVIYZJ7QfgkGZ6RUa-106" target="Akt3h3AdRs0SpvcwCt5--81">
          <mxGeometry relative="1" as="geometry">
            <mxPoint x="171" y="2059" as="targetPoint" />
          </mxGeometry>
        </mxCell>
        <mxCell id="HXrzVIYZJ7QfgkGZ6RUa-126" value="Submit" style="edgeLabel;html=1;align=center;verticalAlign=middle;resizable=0;points=[];" vertex="1" connectable="0" parent="HXrzVIYZJ7QfgkGZ6RUa-124">
          <mxGeometry x="-0.2083" y="-1" relative="1" as="geometry">
            <mxPoint as="offset" />
          </mxGeometry>
        </mxCell>
        <mxCell id="Akt3h3AdRs0SpvcwCt5--72" style="edgeStyle=orthogonalEdgeStyle;rounded=0;orthogonalLoop=1;jettySize=auto;html=1;exitX=0.5;exitY=1;exitDx=0;exitDy=0;entryX=0;entryY=0.5;entryDx=0;entryDy=0;" parent="77e6c97f196da883-1" source="Akt3h3AdRs0SpvcwCt5--62" target="Akt3h3AdRs0SpvcwCt5--71" edge="1">
          <mxGeometry relative="1" as="geometry" />
        </mxCell>
        <mxCell id="2Ceq-H6tFANikrGCOVqs-35" value="post" style="edgeLabel;html=1;align=center;verticalAlign=middle;resizable=0;points=[];" parent="Akt3h3AdRs0SpvcwCt5--72" vertex="1" connectable="0">
          <mxGeometry x="0.1512" y="1" relative="1" as="geometry">
            <mxPoint x="5" y="-9" as="offset" />
          </mxGeometry>
        </mxCell>
        <mxCell id="HXrzVIYZJ7QfgkGZ6RUa-86" value="/v1/my-applications" style="edgeLabel;html=1;align=center;verticalAlign=middle;resizable=0;points=[];" vertex="1" connectable="0" parent="Akt3h3AdRs0SpvcwCt5--72">
          <mxGeometry x="0.4765" y="-4" relative="1" as="geometry">
            <mxPoint x="-54" y="5" as="offset" />
          </mxGeometry>
        </mxCell>
        <mxCell id="Akt3h3AdRs0SpvcwCt5--22" style="edgeStyle=orthogonalEdgeStyle;rounded=0;orthogonalLoop=1;jettySize=auto;html=1;exitX=1;exitY=0.5;exitDx=0;exitDy=0;entryX=0;entryY=0.5;entryDx=0;entryDy=0;" parent="77e6c97f196da883-1" source="Akt3h3AdRs0SpvcwCt5--16" target="Akt3h3AdRs0SpvcwCt5--19" edge="1">
          <mxGeometry relative="1" as="geometry" />
        </mxCell>
        <mxCell id="2Ceq-H6tFANikrGCOVqs-31" value="&lt;span style=&quot;color: rgb(33, 33, 33); font-family: Inter, system-ui, -apple-system, BlinkMacSystemFont, &amp;quot;Segoe UI&amp;quot;, Roboto, Oxygen, Ubuntu, Cantarell, &amp;quot;Fira Sans&amp;quot;, &amp;quot;Droid Sans&amp;quot;, Helvetica, Arial, sans-serif; font-size: 12px; text-align: left;&quot; data-offset-key=&quot;6o12k-1-0&quot;&gt;/v1/application/flows/onboarding&lt;/span&gt;&lt;span style=&quot;color: rgb(33, 33, 33); font-family: Inter, system-ui, -apple-system, BlinkMacSystemFont, &amp;quot;Segoe UI&amp;quot;, Roboto, Oxygen, Ubuntu, Cantarell, &amp;quot;Fira Sans&amp;quot;, &amp;quot;Droid Sans&amp;quot;, Helvetica, Arial, sans-serif; font-size: 12px; text-align: left;&quot; data-offset-key=&quot;6o12k-3-0&quot;&gt;/versions/1&lt;/span&gt;" style="edgeLabel;html=1;align=center;verticalAlign=middle;resizable=0;points=[];" parent="Akt3h3AdRs0SpvcwCt5--22" vertex="1" connectable="0">
          <mxGeometry x="0.1448" relative="1" as="geometry">
            <mxPoint x="-23" y="23" as="offset" />
          </mxGeometry>
        </mxCell>
        <mxCell id="HXrzVIYZJ7QfgkGZ6RUa-1" value="GET" style="edgeLabel;html=1;align=center;verticalAlign=middle;resizable=0;points=[];" vertex="1" connectable="0" parent="Akt3h3AdRs0SpvcwCt5--22">
          <mxGeometry x="-0.3385" y="-1" relative="1" as="geometry">
            <mxPoint x="44" as="offset" />
          </mxGeometry>
        </mxCell>
        <mxCell id="Akt3h3AdRs0SpvcwCt5--26" style="edgeStyle=orthogonalEdgeStyle;rounded=0;orthogonalLoop=1;jettySize=auto;html=1;exitX=0.5;exitY=1;exitDx=0;exitDy=0;entryX=1;entryY=0.5;entryDx=0;entryDy=0;" parent="77e6c97f196da883-1" source="Akt3h3AdRs0SpvcwCt5--19" target="Akt3h3AdRs0SpvcwCt5--24" edge="1">
          <mxGeometry relative="1" as="geometry" />
        </mxCell>
        <mxCell id="HXrzVIYZJ7QfgkGZ6RUa-22" style="edgeStyle=orthogonalEdgeStyle;rounded=0;orthogonalLoop=1;jettySize=auto;html=1;exitX=0.5;exitY=1;exitDx=0;exitDy=0;entryX=1;entryY=0.5;entryDx=0;entryDy=0;" edge="1" parent="77e6c97f196da883-1" source="HXrzVIYZJ7QfgkGZ6RUa-18" target="HXrzVIYZJ7QfgkGZ6RUa-21">
          <mxGeometry relative="1" as="geometry" />
        </mxCell>
        <mxCell id="HXrzVIYZJ7QfgkGZ6RUa-26" style="edgeStyle=orthogonalEdgeStyle;rounded=0;orthogonalLoop=1;jettySize=auto;html=1;exitX=0.5;exitY=1;exitDx=0;exitDy=0;entryX=0.5;entryY=0;entryDx=0;entryDy=0;" edge="1" parent="77e6c97f196da883-1" source="HXrzVIYZJ7QfgkGZ6RUa-21" target="HXrzVIYZJ7QfgkGZ6RUa-29">
          <mxGeometry relative="1" as="geometry">
            <mxPoint x="505.5" y="870" as="targetPoint" />
          </mxGeometry>
        </mxCell>
        <mxCell id="HXrzVIYZJ7QfgkGZ6RUa-27" value="POST" style="edgeLabel;html=1;align=center;verticalAlign=middle;resizable=0;points=[];" vertex="1" connectable="0" parent="HXrzVIYZJ7QfgkGZ6RUa-26">
          <mxGeometry x="0.2472" y="-2" relative="1" as="geometry">
            <mxPoint x="-46" y="-13" as="offset" />
          </mxGeometry>
        </mxCell>
        <mxCell id="HXrzVIYZJ7QfgkGZ6RUa-28" value="/v1/sms/otp/validation" style="edgeLabel;html=1;align=center;verticalAlign=middle;resizable=0;points=[];" vertex="1" connectable="0" parent="HXrzVIYZJ7QfgkGZ6RUa-26">
          <mxGeometry x="0.5801" y="-1" relative="1" as="geometry">
            <mxPoint x="-123" y="8" as="offset" />
          </mxGeometry>
        </mxCell>
        <mxCell id="HXrzVIYZJ7QfgkGZ6RUa-40" style="edgeStyle=orthogonalEdgeStyle;rounded=0;orthogonalLoop=1;jettySize=auto;html=1;exitX=1;exitY=0.5;exitDx=0;exitDy=0;entryX=0;entryY=0.5;entryDx=0;entryDy=0;dashed=1;" edge="1" parent="77e6c97f196da883-1" source="HXrzVIYZJ7QfgkGZ6RUa-29" target="HXrzVIYZJ7QfgkGZ6RUa-9">
          <mxGeometry relative="1" as="geometry" />
        </mxCell>
        <mxCell id="HXrzVIYZJ7QfgkGZ6RUa-41" value="Pass" style="edgeLabel;html=1;align=center;verticalAlign=middle;resizable=0;points=[];" vertex="1" connectable="0" parent="HXrzVIYZJ7QfgkGZ6RUa-40">
          <mxGeometry x="0.2517" y="-1" relative="1" as="geometry">
            <mxPoint x="-56" y="-1" as="offset" />
          </mxGeometry>
        </mxCell>
        <mxCell id="HXrzVIYZJ7QfgkGZ6RUa-42" style="edgeStyle=orthogonalEdgeStyle;rounded=0;orthogonalLoop=1;jettySize=auto;html=1;exitX=0.5;exitY=1;exitDx=0;exitDy=0;entryX=1;entryY=0.5;entryDx=0;entryDy=0;dashed=1;" edge="1" parent="77e6c97f196da883-1" source="HXrzVIYZJ7QfgkGZ6RUa-9" target="HXrzVIYZJ7QfgkGZ6RUa-59">
          <mxGeometry relative="1" as="geometry">
            <mxPoint x="658.25" y="1060" as="targetPoint" />
          </mxGeometry>
        </mxCell>
        <mxCell id="HXrzVIYZJ7QfgkGZ6RUa-60" style="edgeStyle=orthogonalEdgeStyle;rounded=0;orthogonalLoop=1;jettySize=auto;html=1;exitX=0;exitY=0.5;exitDx=0;exitDy=0;entryX=0.5;entryY=1;entryDx=0;entryDy=0;dashed=1;" edge="1" parent="77e6c97f196da883-1" source="HXrzVIYZJ7QfgkGZ6RUa-59" target="Akt3h3AdRs0SpvcwCt5--60">
          <mxGeometry relative="1" as="geometry" />
        </mxCell>
        <mxCell id="HXrzVIYZJ7QfgkGZ6RUa-61" value="&lt;div&gt;&lt;span style=&quot;font-size: 11px;&quot;&gt;Email or mobile a&lt;/span&gt;lready exists&lt;/div&gt;" style="edgeLabel;html=1;align=center;verticalAlign=middle;resizable=0;points=[];" vertex="1" connectable="0" parent="HXrzVIYZJ7QfgkGZ6RUa-60">
          <mxGeometry x="-0.397" y="-2" relative="1" as="geometry">
            <mxPoint y="-8" as="offset" />
          </mxGeometry>
        </mxCell>
        <mxCell id="HXrzVIYZJ7QfgkGZ6RUa-65" style="edgeStyle=orthogonalEdgeStyle;rounded=0;orthogonalLoop=1;jettySize=auto;html=1;exitX=0.5;exitY=1;exitDx=0;exitDy=0;entryX=1;entryY=0.5;entryDx=0;entryDy=0;dashed=1;" edge="1" parent="77e6c97f196da883-1" source="HXrzVIYZJ7QfgkGZ6RUa-59" target="HXrzVIYZJ7QfgkGZ6RUa-63">
          <mxGeometry relative="1" as="geometry" />
        </mxCell>
        <mxCell id="HXrzVIYZJ7QfgkGZ6RUa-66" value="Email and mobile not exists" style="edgeLabel;html=1;align=center;verticalAlign=middle;resizable=0;points=[];labelBackgroundColor=default;" vertex="1" connectable="0" parent="HXrzVIYZJ7QfgkGZ6RUa-65">
          <mxGeometry x="0.2135" y="-1" relative="1" as="geometry">
            <mxPoint x="5" y="-9" as="offset" />
          </mxGeometry>
        </mxCell>
        <mxCell id="HXrzVIYZJ7QfgkGZ6RUa-69" style="edgeStyle=orthogonalEdgeStyle;rounded=0;orthogonalLoop=1;jettySize=auto;html=1;exitX=0.5;exitY=1;exitDx=0;exitDy=0;entryX=0;entryY=0.5;entryDx=0;entryDy=0;" edge="1" parent="77e6c97f196da883-1" source="HXrzVIYZJ7QfgkGZ6RUa-63" target="HXrzVIYZJ7QfgkGZ6RUa-70">
          <mxGeometry relative="1" as="geometry">
            <mxPoint x="525.5" y="1260" as="targetPoint" />
          </mxGeometry>
        </mxCell>
        <mxCell id="HXrzVIYZJ7QfgkGZ6RUa-84" value="POST" style="edgeLabel;html=1;align=center;verticalAlign=middle;resizable=0;points=[];" vertex="1" connectable="0" parent="HXrzVIYZJ7QfgkGZ6RUa-69">
          <mxGeometry x="0.0387" y="-1" relative="1" as="geometry">
            <mxPoint x="14" y="-11" as="offset" />
          </mxGeometry>
        </mxCell>
        <mxCell id="HXrzVIYZJ7QfgkGZ6RUa-85" value="/v1/my-applications" style="edgeLabel;html=1;align=center;verticalAlign=middle;resizable=0;points=[];labelBackgroundColor=default;" vertex="1" connectable="0" parent="HXrzVIYZJ7QfgkGZ6RUa-69">
          <mxGeometry x="0.4175" y="-1" relative="1" as="geometry">
            <mxPoint x="-68" y="9" as="offset" />
          </mxGeometry>
        </mxCell>
        <mxCell id="HXrzVIYZJ7QfgkGZ6RUa-72" style="edgeStyle=orthogonalEdgeStyle;rounded=0;orthogonalLoop=1;jettySize=auto;html=1;exitX=0.5;exitY=1;exitDx=0;exitDy=0;entryX=1;entryY=0.5;entryDx=0;entryDy=0;" edge="1" parent="77e6c97f196da883-1" source="HXrzVIYZJ7QfgkGZ6RUa-70" target="HXrzVIYZJ7QfgkGZ6RUa-71">
          <mxGeometry relative="1" as="geometry">
            <mxPoint x="585.5" y="1279" as="sourcePoint" />
          </mxGeometry>
        </mxCell>
        <mxCell id="HXrzVIYZJ7QfgkGZ6RUa-73" value="userName not exists" style="edgeLabel;html=1;align=center;verticalAlign=middle;resizable=0;points=[];" vertex="1" connectable="0" parent="HXrzVIYZJ7QfgkGZ6RUa-72">
          <mxGeometry x="0.1189" y="2" relative="1" as="geometry">
            <mxPoint as="offset" />
          </mxGeometry>
        </mxCell>
        <mxCell id="HXrzVIYZJ7QfgkGZ6RUa-78" style="edgeStyle=orthogonalEdgeStyle;rounded=0;orthogonalLoop=1;jettySize=auto;html=1;exitX=0.5;exitY=1;exitDx=0;exitDy=0;entryX=1;entryY=0.5;entryDx=0;entryDy=0;" edge="1" parent="77e6c97f196da883-1" source="Akt3h3AdRs0SpvcwCt5--71" target="HXrzVIYZJ7QfgkGZ6RUa-77">
          <mxGeometry relative="1" as="geometry" />
        </mxCell>
        <mxCell id="HXrzVIYZJ7QfgkGZ6RUa-80" style="edgeStyle=orthogonalEdgeStyle;rounded=0;orthogonalLoop=1;jettySize=auto;html=1;exitX=0.5;exitY=1;exitDx=0;exitDy=0;entryX=0;entryY=0.5;entryDx=0;entryDy=0;" edge="1" parent="77e6c97f196da883-1" source="HXrzVIYZJ7QfgkGZ6RUa-77" target="HXrzVIYZJ7QfgkGZ6RUa-79">
          <mxGeometry relative="1" as="geometry" />
        </mxCell>
        <mxCell id="HXrzVIYZJ7QfgkGZ6RUa-83" style="edgeStyle=orthogonalEdgeStyle;rounded=0;orthogonalLoop=1;jettySize=auto;html=1;exitX=0.5;exitY=1;exitDx=0;exitDy=0;entryX=1;entryY=0.5;entryDx=0;entryDy=0;" edge="1" parent="77e6c97f196da883-1" source="HXrzVIYZJ7QfgkGZ6RUa-79" target="HXrzVIYZJ7QfgkGZ6RUa-81">
          <mxGeometry relative="1" as="geometry" />
        </mxCell>
        <mxCell id="HXrzVIYZJ7QfgkGZ6RUa-113" style="edgeStyle=orthogonalEdgeStyle;rounded=0;orthogonalLoop=1;jettySize=auto;html=1;exitX=0.5;exitY=1;exitDx=0;exitDy=0;entryX=0;entryY=0.5;entryDx=0;entryDy=0;endArrow=blockThin;endFill=1;jumpStyle=line;startArrow=classic;startFill=1;" edge="1" parent="77e6c97f196da883-1" source="HXrzVIYZJ7QfgkGZ6RUa-81" target="HXrzVIYZJ7QfgkGZ6RUa-106">
          <mxGeometry relative="1" as="geometry" />
        </mxCell>
        <mxCell id="Akt3h3AdRs0SpvcwCt5--100" style="edgeStyle=orthogonalEdgeStyle;rounded=0;orthogonalLoop=1;jettySize=auto;html=1;exitX=0.5;exitY=1;exitDx=0;exitDy=0;entryX=0;entryY=0.5;entryDx=0;entryDy=0;shadow=1;" parent="77e6c97f196da883-1" source="Akt3h3AdRs0SpvcwCt5--94" target="Akt3h3AdRs0SpvcwCt5--98" edge="1">
          <mxGeometry relative="1" as="geometry" />
        </mxCell>
        <mxCell id="GS4V8Wg4BXqWyx1amGgQ-2" value="&lt;span style=&quot;color: rgb(56, 66, 72); font-family: Lato; font-size: 13px; text-align: start;&quot;&gt;/acquisitions/v2/s2s/applications&lt;/span&gt;" style="edgeLabel;html=1;align=center;verticalAlign=middle;resizable=0;points=[];" vertex="1" connectable="0" parent="Akt3h3AdRs0SpvcwCt5--100">
          <mxGeometry x="0.5361" y="-1" relative="1" as="geometry">
            <mxPoint x="-30" y="8" as="offset" />
          </mxGeometry>
        </mxCell>
        <mxCell id="2Ceq-H6tFANikrGCOVqs-39" value="POST" style="edgeLabel;html=1;align=center;verticalAlign=middle;resizable=0;points=[];" parent="Akt3h3AdRs0SpvcwCt5--100" vertex="1" connectable="0">
          <mxGeometry x="0.119" relative="1" as="geometry">
            <mxPoint x="41" y="-10" as="offset" />
          </mxGeometry>
        </mxCell>
        <mxCell id="Akt3h3AdRs0SpvcwCt5--1" value="PISMO API" style="swimlane;html=1;startSize=20;" parent="77e6c97f196da883-1" vertex="1">
          <mxGeometry x="760" y="20" width="340" height="2530" as="geometry">
            <mxRectangle x="120" y="20" width="40" height="730" as="alternateBounds" />
          </mxGeometry>
        </mxCell>
        <mxCell id="Akt3h3AdRs0SpvcwCt5--85" value="request token" style="rounded=0;whiteSpace=wrap;html=1;" parent="Akt3h3AdRs0SpvcwCt5--1" vertex="1">
          <mxGeometry x="151" y="2059" width="120" height="60" as="geometry" />
        </mxCell>
        <mxCell id="Akt3h3AdRs0SpvcwCt5--98" value="regist&amp;nbsp; account/customer" style="whiteSpace=wrap;html=1;rounded=0;" parent="Akt3h3AdRs0SpvcwCt5--1" vertex="1">
          <mxGeometry x="151" y="2322" width="120" height="60" as="geometry" />
        </mxCell>
        <mxCell id="HXrzVIYZJ7QfgkGZ6RUa-9" value="Query &quot;email and mobile&quot;" style="rounded=1;whiteSpace=wrap;html=1;fillColor=#FFFFFF;strokeColor=#FF0000;dashed=1;" vertex="1" parent="Akt3h3AdRs0SpvcwCt5--1">
          <mxGeometry x="90" y="872" width="120" height="60" as="geometry" />
        </mxCell>
      </root>
    </mxGraphModel>
  </diagram>
  <diagram id="JefItQQ-cC_4rSwBYG0n" name="create card">
    <mxGraphModel dx="2062" dy="1122" grid="1" gridSize="10" guides="1" tooltips="1" connect="1" arrows="1" fold="1" page="1" pageScale="1" pageWidth="1100" pageHeight="850" math="0" shadow="0">
      <root>
        <mxCell id="0" />
        <mxCell id="1" parent="0" />
        <mxCell id="-ztwoPm2OrguGS3gSJhK-1" value="create card" style="swimlane;html=1;childLayout=stackLayout;startSize=20;rounded=0;shadow=0;labelBackgroundColor=none;strokeWidth=1;fontFamily=Verdana;fontSize=8;align=center;" vertex="1" parent="1">
          <mxGeometry width="1100" height="1270" as="geometry">
            <mxRectangle x="70" y="40" width="190" height="30" as="alternateBounds" />
          </mxGeometry>
        </mxCell>
        <mxCell id="-ztwoPm2OrguGS3gSJhK-2" value="OCMB APP" style="swimlane;html=1;startSize=20;" vertex="1" parent="-ztwoPm2OrguGS3gSJhK-1">
          <mxGeometry y="20" width="370" height="1250" as="geometry">
            <mxRectangle x="40" y="20" width="40" height="730" as="alternateBounds" />
          </mxGeometry>
        </mxCell>
        <mxCell id="_Rerh1Ffgw1ljmtPrs9r-11" style="edgeStyle=orthogonalEdgeStyle;rounded=0;jumpStyle=line;orthogonalLoop=1;jettySize=auto;html=1;exitX=0.5;exitY=1;exitDx=0;exitDy=0;entryX=0.5;entryY=0;entryDx=0;entryDy=0;shadow=1;startArrow=none;startFill=0;endArrow=blockThin;endFill=1;" edge="1" parent="-ztwoPm2OrguGS3gSJhK-2" source="-ztwoPm2OrguGS3gSJhK-3" target="_Rerh1Ffgw1ljmtPrs9r-10">
          <mxGeometry relative="1" as="geometry" />
        </mxCell>
        <mxCell id="-ztwoPm2OrguGS3gSJhK-3" value="&lt;div&gt;&quot;Product Category&quot; screen&lt;/div&gt;" style="rounded=1;whiteSpace=wrap;html=1;" vertex="1" parent="-ztwoPm2OrguGS3gSJhK-2">
          <mxGeometry x="55" y="140" width="155" height="60" as="geometry" />
        </mxCell>
        <mxCell id="-ztwoPm2OrguGS3gSJhK-5" value="&lt;div&gt;&quot;Card details&quot; screen&lt;/div&gt;" style="whiteSpace=wrap;html=1;rounded=1;" vertex="1" parent="-ztwoPm2OrguGS3gSJhK-2">
          <mxGeometry x="55" y="460" width="155" height="60" as="geometry" />
        </mxCell>
        <mxCell id="-ztwoPm2OrguGS3gSJhK-7" value="&lt;div&gt;&quot;successful&quot; screen&lt;/div&gt;" style="whiteSpace=wrap;html=1;rounded=0;" vertex="1" parent="-ztwoPm2OrguGS3gSJhK-2">
          <mxGeometry x="70" y="1128" width="120" height="60" as="geometry" />
        </mxCell>
        <mxCell id="_Rerh1Ffgw1ljmtPrs9r-2" value="&lt;div&gt;Click &quot;Apply&quot; Button&lt;/div&gt;" style="rounded=1;whiteSpace=wrap;html=1;" vertex="1" parent="-ztwoPm2OrguGS3gSJhK-2">
          <mxGeometry x="55" y="40" width="155" height="60" as="geometry" />
        </mxCell>
        <mxCell id="aBi8eappRncqRm-S3S4F-2" style="edgeStyle=orthogonalEdgeStyle;rounded=0;jumpStyle=line;orthogonalLoop=1;jettySize=auto;html=1;shadow=1;startArrow=none;startFill=0;endArrow=blockThin;endFill=1;" edge="1" parent="-ztwoPm2OrguGS3gSJhK-2" source="_Rerh1Ffgw1ljmtPrs9r-10" target="aBi8eappRncqRm-S3S4F-1">
          <mxGeometry relative="1" as="geometry" />
        </mxCell>
        <mxCell id="_Rerh1Ffgw1ljmtPrs9r-10" value="&lt;div&gt;&quot;Product List&quot; screen&lt;/div&gt;" style="rounded=1;whiteSpace=wrap;html=1;" vertex="1" parent="-ztwoPm2OrguGS3gSJhK-2">
          <mxGeometry x="55" y="250" width="155" height="60" as="geometry" />
        </mxCell>
        <mxCell id="sXqX51dqVg1JwjMvx-Wj-1" style="edgeStyle=orthogonalEdgeStyle;rounded=0;jumpStyle=line;orthogonalLoop=1;jettySize=auto;html=1;exitX=0.5;exitY=1;exitDx=0;exitDy=0;shadow=1;startArrow=none;startFill=0;endArrow=blockThin;endFill=1;" edge="1" parent="-ztwoPm2OrguGS3gSJhK-2" source="aBi8eappRncqRm-S3S4F-1" target="-ztwoPm2OrguGS3gSJhK-5">
          <mxGeometry relative="1" as="geometry" />
        </mxCell>
        <mxCell id="aBi8eappRncqRm-S3S4F-1" value="&lt;div&gt;&quot;Create card info&quot; screen&lt;/div&gt;" style="whiteSpace=wrap;html=1;rounded=1;" vertex="1" parent="-ztwoPm2OrguGS3gSJhK-2">
          <mxGeometry x="55" y="350" width="155" height="60" as="geometry" />
        </mxCell>
        <mxCell id="FSNEAS2BVyc_DA7C3l2N-1" value="&quot;Review your appliction details&quot; screen" style="rounded=1;whiteSpace=wrap;html=1;strokeColor=#000000;fillColor=#FFFFFF;" vertex="1" parent="-ztwoPm2OrguGS3gSJhK-2">
          <mxGeometry x="50" y="600" width="160" height="60" as="geometry" />
        </mxCell>
        <mxCell id="-ztwoPm2OrguGS3gSJhK-32" style="edgeStyle=orthogonalEdgeStyle;rounded=0;orthogonalLoop=1;jettySize=auto;html=1;exitX=1;exitY=0.5;exitDx=0;exitDy=0;entryX=0;entryY=0.5;entryDx=0;entryDy=0;" edge="1" parent="-ztwoPm2OrguGS3gSJhK-1" source="_Rerh1Ffgw1ljmtPrs9r-2" target="-ztwoPm2OrguGS3gSJhK-9">
          <mxGeometry relative="1" as="geometry" />
        </mxCell>
        <mxCell id="-ztwoPm2OrguGS3gSJhK-33" value="&lt;span style=&quot;color: rgb(33, 33, 33); font-family: Inter, system-ui, -apple-system, BlinkMacSystemFont, &amp;quot;Segoe UI&amp;quot;, Roboto, Oxygen, Ubuntu, Cantarell, &amp;quot;Fira Sans&amp;quot;, &amp;quot;Droid Sans&amp;quot;, Helvetica, Arial, sans-serif; font-size: 12px; text-align: left;&quot;&gt;/products/customer&lt;/span&gt;" style="edgeLabel;html=1;align=center;verticalAlign=middle;resizable=0;points=[];" vertex="1" connectable="0" parent="-ztwoPm2OrguGS3gSJhK-32">
          <mxGeometry x="0.1448" relative="1" as="geometry">
            <mxPoint x="-13" y="8" as="offset" />
          </mxGeometry>
        </mxCell>
        <mxCell id="_Rerh1Ffgw1ljmtPrs9r-1" value="GET" style="edgeLabel;html=1;align=center;verticalAlign=middle;resizable=0;points=[];" vertex="1" connectable="0" parent="-ztwoPm2OrguGS3gSJhK-32">
          <mxGeometry x="0.1113" y="-2" relative="1" as="geometry">
            <mxPoint x="-21" y="-12" as="offset" />
          </mxGeometry>
        </mxCell>
        <mxCell id="-ztwoPm2OrguGS3gSJhK-34" style="edgeStyle=orthogonalEdgeStyle;rounded=0;orthogonalLoop=1;jettySize=auto;html=1;exitX=0.5;exitY=1;exitDx=0;exitDy=0;entryX=1;entryY=0.5;entryDx=0;entryDy=0;" edge="1" parent="-ztwoPm2OrguGS3gSJhK-1" source="-ztwoPm2OrguGS3gSJhK-9" target="-ztwoPm2OrguGS3gSJhK-3">
          <mxGeometry relative="1" as="geometry" />
        </mxCell>
        <mxCell id="-ztwoPm2OrguGS3gSJhK-20" style="edgeStyle=orthogonalEdgeStyle;rounded=0;orthogonalLoop=1;jettySize=auto;html=1;exitX=1;exitY=0.5;exitDx=0;exitDy=0;entryX=0;entryY=0.5;entryDx=0;entryDy=0;" edge="1" parent="-ztwoPm2OrguGS3gSJhK-1" source="-ztwoPm2OrguGS3gSJhK-14" target="-ztwoPm2OrguGS3gSJhK-30">
          <mxGeometry relative="1" as="geometry" />
        </mxCell>
        <mxCell id="-ztwoPm2OrguGS3gSJhK-21" value="&lt;span style=&quot;color: rgb(56, 66, 72); font-family: Lato; font-size: 13px; text-align: start;&quot;&gt;/passport&lt;/span&gt;&lt;span style=&quot;color: rgb(56, 66, 72); font-family: Lato; font-size: 13px; text-align: start;&quot;&gt;/v1/oauth2/token&lt;/span&gt;" style="edgeLabel;html=1;align=center;verticalAlign=middle;resizable=0;points=[];" vertex="1" connectable="0" parent="-ztwoPm2OrguGS3gSJhK-20">
          <mxGeometry x="-0.1875" y="1" relative="1" as="geometry">
            <mxPoint x="30" y="11" as="offset" />
          </mxGeometry>
        </mxCell>
        <mxCell id="-ztwoPm2OrguGS3gSJhK-22" style="edgeStyle=orthogonalEdgeStyle;rounded=0;orthogonalLoop=1;jettySize=auto;html=1;exitX=0.5;exitY=1;exitDx=0;exitDy=0;entryX=1;entryY=0.5;entryDx=0;entryDy=0;" edge="1" parent="-ztwoPm2OrguGS3gSJhK-1" source="-ztwoPm2OrguGS3gSJhK-30" target="-ztwoPm2OrguGS3gSJhK-15">
          <mxGeometry relative="1" as="geometry" />
        </mxCell>
        <mxCell id="-ztwoPm2OrguGS3gSJhK-23" value="response token" style="edgeLabel;html=1;align=center;verticalAlign=middle;resizable=0;points=[];" vertex="1" connectable="0" parent="-ztwoPm2OrguGS3gSJhK-22">
          <mxGeometry x="0.0685" y="2" relative="1" as="geometry">
            <mxPoint x="-95" y="-16" as="offset" />
          </mxGeometry>
        </mxCell>
        <mxCell id="-ztwoPm2OrguGS3gSJhK-24" style="edgeStyle=orthogonalEdgeStyle;rounded=0;orthogonalLoop=1;jettySize=auto;html=1;exitX=0.5;exitY=1;exitDx=0;exitDy=0;entryX=0;entryY=0.5;entryDx=0;entryDy=0;" edge="1" parent="-ztwoPm2OrguGS3gSJhK-1" source="-ztwoPm2OrguGS3gSJhK-15" target="-ztwoPm2OrguGS3gSJhK-31">
          <mxGeometry relative="1" as="geometry" />
        </mxCell>
        <mxCell id="-ztwoPm2OrguGS3gSJhK-25" value="POST" style="edgeLabel;html=1;align=center;verticalAlign=middle;resizable=0;points=[];" vertex="1" connectable="0" parent="-ztwoPm2OrguGS3gSJhK-24">
          <mxGeometry x="0.119" relative="1" as="geometry">
            <mxPoint x="64" y="-13" as="offset" />
          </mxGeometry>
        </mxCell>
        <mxCell id="1qYR74eFdYPwkDfSf0Tb-1" value="&lt;div style=&quot;display: flex; margin-top: 10px; color: rgb(56, 66, 72); font-family: Lato; font-size: medium; text-align: start;&quot; class=&quot;headline-container-article-info2GaOf2jMpV0r&quot;&gt;&lt;span style=&quot;font-size: 13px; word-break: break-all;&quot; title=&quot;https://api-sandbox.pismolabs.io/wallet/v2/cards&quot; data-testid=&quot;serverurl&quot; class=&quot;headline-container-article-info-url2nV_XrjpFuVQ&quot;&gt;&lt;br&gt;&lt;/span&gt;&lt;/div&gt;&lt;div style=&quot;font-size: medium; text-size-adjust: 100%; position: relative; font-family: Lato; line-height: var(--markdown-line-height); color: rgb(56, 66, 72); overflow-wrap: break-word; margin-bottom: 0px; margin-top: 10px; text-align: start;&quot; data-testid=&quot;RDMD&quot; class=&quot;markdown-body undefined excerptT2m-MzSJGRK7&quot; role=&quot;doc-subtitle&quot;&gt;&lt;/div&gt;" style="edgeLabel;html=1;align=center;verticalAlign=middle;resizable=0;points=[];" vertex="1" connectable="0" parent="-ztwoPm2OrguGS3gSJhK-24">
          <mxGeometry x="0.6" y="-3" relative="1" as="geometry">
            <mxPoint x="-32" y="9" as="offset" />
          </mxGeometry>
        </mxCell>
        <mxCell id="1qYR74eFdYPwkDfSf0Tb-4" value="&lt;span style=&quot;color: rgba(0, 0, 0, 0); font-family: monospace; font-size: 0px; text-align: start; background-color: rgb(248, 249, 250);&quot;&gt;%3CmxGraphModel%3E%3Croot%3E%3CmxCell%20id%3D%220%22%2F%3E%3CmxCell%20id%3D%221%22%20parent%3D%220%22%2F%3E%3CmxCell%20id%3D%222%22%20value%3D%22%26lt%3Bspan%20style%3D%26quot%3Bfont-size%3A%2012px%3B%20background-color%3A%20rgb(248%2C%20249%2C%20250)%3B%26quot%3B%26gt%3B%2Fwallet%2Fv2%2Fcards%26lt%3B%2Fspan%26gt%3B%22%20style%3D%22edgeLabel%3Bhtml%3D1%3Balign%3Dcenter%3BverticalAlign%3Dmiddle%3Bresizable%3D0%3Bpoints%3D%5B%5D%3B%22%20vertex%3D%221%22%20connectable%3D%220%22%20parent%3D%221%22%3E%3CmxGeometry%20x%3D%22770%22%20y%3D%22960%22%20as%3D%22geometry%22%2F%3E%3C%2FmxCell%3E%3C%2Froot%3E%3C%2FmxGraphModel%3E&lt;/span&gt;&lt;span style=&quot;color: rgba(0, 0, 0, 0); font-family: monospace; font-size: 0px; text-align: start; background-color: rgb(248, 249, 250);&quot;&gt;%3CmxGraphModel%3E%3Croot%3E%3CmxCell%20id%3D%220%22%2F%3E%3CmxCell%20id%3D%221%22%20parent%3D%220%22%2F%3E%3CmxCell%20id%3D%222%22%20value%3D%22%26lt%3Bspan%20style%3D%26quot%3Bfont-size%3A%2012px%3B%20background-color%3A%20rgb(248%2C%20249%2C%20250)%3B%26quot%3B%26gt%3B%2Fwallet%2Fv2%2Fcards%26lt%3B%2Fspan%26gt%3B%22%20style%3D%22edgeLabel%3Bhtml%3D1%3Balign%3Dcenter%3BverticalAlign%3Dmiddle%3Bresizable%3D0%3Bpoints%3D%5B%5D%3B%22%20vertex%3D%221%22%20connectable%3D%220%22%20parent%3D%221%22%3E%3CmxGeometry%20x%3D%22770%22%20y%3D%22960%22%20as%3D%22geometry%22%2F%3E%3C%2FmxCell%3E%3C%2Froot%3E%3C%2FmxGraphModel%3E&lt;/span&gt;&lt;font face=&quot;monospace&quot; color=&quot;rgba(0, 0, 0, 0)&quot;&gt;&lt;span style=&quot;font-size: 0px;&quot;&gt;/wallet/v2/cards&lt;/span&gt;&lt;/font&gt;" style="edgeLabel;html=1;align=center;verticalAlign=middle;resizable=0;points=[];" vertex="1" connectable="0" parent="-ztwoPm2OrguGS3gSJhK-24">
          <mxGeometry x="0.6923" y="-2" relative="1" as="geometry">
            <mxPoint as="offset" />
          </mxGeometry>
        </mxCell>
        <mxCell id="1qYR74eFdYPwkDfSf0Tb-5" value="/wallet/v2/cards" style="edgeLabel;html=1;align=center;verticalAlign=middle;resizable=0;points=[];" vertex="1" connectable="0" parent="-ztwoPm2OrguGS3gSJhK-24">
          <mxGeometry x="0.6667" y="-3" relative="1" as="geometry">
            <mxPoint x="-35" y="7" as="offset" />
          </mxGeometry>
        </mxCell>
        <mxCell id="-ztwoPm2OrguGS3gSJhK-40" style="edgeStyle=orthogonalEdgeStyle;rounded=0;orthogonalLoop=1;jettySize=auto;html=1;exitX=1;exitY=0.5;exitDx=0;exitDy=0;" edge="1" parent="-ztwoPm2OrguGS3gSJhK-1" source="-ztwoPm2OrguGS3gSJhK-5" target="-ztwoPm2OrguGS3gSJhK-19">
          <mxGeometry relative="1" as="geometry">
            <mxPoint x="190" y="680" as="sourcePoint" />
          </mxGeometry>
        </mxCell>
        <mxCell id="-ztwoPm2OrguGS3gSJhK-41" value="POST" style="edgeLabel;html=1;align=center;verticalAlign=middle;resizable=0;points=[];" vertex="1" connectable="0" parent="-ztwoPm2OrguGS3gSJhK-40">
          <mxGeometry x="0.1407" y="-2" relative="1" as="geometry">
            <mxPoint x="-29" y="-12" as="offset" />
          </mxGeometry>
        </mxCell>
        <mxCell id="unq5F3HCtpJJmsBXHXXX-3" value="/v1/my-applications" style="edgeLabel;html=1;align=center;verticalAlign=middle;resizable=0;points=[];" vertex="1" connectable="0" parent="-ztwoPm2OrguGS3gSJhK-40">
          <mxGeometry x="0.2676" relative="1" as="geometry">
            <mxPoint x="-40" y="10" as="offset" />
          </mxGeometry>
        </mxCell>
        <mxCell id="-ztwoPm2OrguGS3gSJhK-26" style="edgeStyle=orthogonalEdgeStyle;rounded=0;orthogonalLoop=1;jettySize=auto;html=1;exitX=0.5;exitY=1;exitDx=0;exitDy=0;entryX=1;entryY=0.5;entryDx=0;entryDy=0;" edge="1" parent="-ztwoPm2OrguGS3gSJhK-1" source="-ztwoPm2OrguGS3gSJhK-31" target="-ztwoPm2OrguGS3gSJhK-16">
          <mxGeometry relative="1" as="geometry" />
        </mxCell>
        <mxCell id="-ztwoPm2OrguGS3gSJhK-27" value="response card info" style="edgeLabel;html=1;align=center;verticalAlign=middle;resizable=0;points=[];" vertex="1" connectable="0" parent="-ztwoPm2OrguGS3gSJhK-26">
          <mxGeometry x="0.1715" y="1" relative="1" as="geometry">
            <mxPoint as="offset" />
          </mxGeometry>
        </mxCell>
        <mxCell id="-ztwoPm2OrguGS3gSJhK-28" value="" style="edgeStyle=orthogonalEdgeStyle;rounded=0;orthogonalLoop=1;jettySize=auto;html=1;" edge="1" parent="-ztwoPm2OrguGS3gSJhK-1" source="-ztwoPm2OrguGS3gSJhK-16" target="-ztwoPm2OrguGS3gSJhK-7">
          <mxGeometry relative="1" as="geometry" />
        </mxCell>
        <mxCell id="-ztwoPm2OrguGS3gSJhK-8" value="OCMB API" style="swimlane;html=1;startSize=20;" vertex="1" parent="-ztwoPm2OrguGS3gSJhK-1">
          <mxGeometry x="370" y="20" width="410" height="1250" as="geometry">
            <mxRectangle x="80" y="20" width="40" height="730" as="alternateBounds" />
          </mxGeometry>
        </mxCell>
        <mxCell id="-ztwoPm2OrguGS3gSJhK-9" value="Query &quot;Product Category &amp;amp; Sub Product List&quot;" style="rounded=1;whiteSpace=wrap;html=1;" vertex="1" parent="-ztwoPm2OrguGS3gSJhK-8">
          <mxGeometry x="140" y="41" width="120" height="60" as="geometry" />
        </mxCell>
        <mxCell id="-ztwoPm2OrguGS3gSJhK-10" style="edgeStyle=orthogonalEdgeStyle;rounded=0;orthogonalLoop=1;jettySize=auto;html=1;exitX=0.5;exitY=1;exitDx=0;exitDy=0;" edge="1" parent="-ztwoPm2OrguGS3gSJhK-8" source="-ztwoPm2OrguGS3gSJhK-11" target="-ztwoPm2OrguGS3gSJhK-14">
          <mxGeometry relative="1" as="geometry" />
        </mxCell>
        <mxCell id="unq5F3HCtpJJmsBXHXXX-4" value="Submit" style="edgeLabel;html=1;align=center;verticalAlign=middle;resizable=0;points=[];" vertex="1" connectable="0" parent="-ztwoPm2OrguGS3gSJhK-10">
          <mxGeometry x="0.2464" relative="1" as="geometry">
            <mxPoint as="offset" />
          </mxGeometry>
        </mxCell>
        <mxCell id="-ztwoPm2OrguGS3gSJhK-11" value="save data" style="rounded=1;whiteSpace=wrap;html=1;" vertex="1" parent="-ztwoPm2OrguGS3gSJhK-8">
          <mxGeometry x="140" y="600" width="120" height="60" as="geometry" />
        </mxCell>
        <mxCell id="-ztwoPm2OrguGS3gSJhK-12" style="edgeStyle=orthogonalEdgeStyle;rounded=0;orthogonalLoop=1;jettySize=auto;html=1;exitX=0.5;exitY=1;exitDx=0;exitDy=0;entryX=0.5;entryY=0;entryDx=0;entryDy=0;" edge="1" parent="-ztwoPm2OrguGS3gSJhK-8" source="-ztwoPm2OrguGS3gSJhK-14" target="-ztwoPm2OrguGS3gSJhK-15">
          <mxGeometry relative="1" as="geometry" />
        </mxCell>
        <mxCell id="-ztwoPm2OrguGS3gSJhK-13" value="has token" style="edgeLabel;html=1;align=center;verticalAlign=middle;resizable=0;points=[];" vertex="1" connectable="0" parent="-ztwoPm2OrguGS3gSJhK-12">
          <mxGeometry x="-0.3333" y="-1" relative="1" as="geometry">
            <mxPoint as="offset" />
          </mxGeometry>
        </mxCell>
        <mxCell id="-ztwoPm2OrguGS3gSJhK-14" value="&lt;div&gt;Token verification&lt;/div&gt;" style="rhombus;whiteSpace=wrap;html=1;" vertex="1" parent="-ztwoPm2OrguGS3gSJhK-8">
          <mxGeometry x="160" y="740" width="80" height="80" as="geometry" />
        </mxCell>
        <mxCell id="-ztwoPm2OrguGS3gSJhK-15" value="get token" style="rounded=0;whiteSpace=wrap;html=1;" vertex="1" parent="-ztwoPm2OrguGS3gSJhK-8">
          <mxGeometry x="140" y="900" width="120" height="60" as="geometry" />
        </mxCell>
        <mxCell id="-ztwoPm2OrguGS3gSJhK-16" value="get response" style="whiteSpace=wrap;html=1;rounded=0;" vertex="1" parent="-ztwoPm2OrguGS3gSJhK-8">
          <mxGeometry x="145" y="1128" width="120" height="60" as="geometry" />
        </mxCell>
        <mxCell id="-ztwoPm2OrguGS3gSJhK-17" style="edgeStyle=orthogonalEdgeStyle;rounded=0;orthogonalLoop=1;jettySize=auto;html=1;exitX=0.5;exitY=1;exitDx=0;exitDy=0;" edge="1" parent="-ztwoPm2OrguGS3gSJhK-8">
          <mxGeometry relative="1" as="geometry">
            <mxPoint x="205" as="sourcePoint" />
            <mxPoint x="205" as="targetPoint" />
          </mxGeometry>
        </mxCell>
        <mxCell id="-ztwoPm2OrguGS3gSJhK-18" style="edgeStyle=orthogonalEdgeStyle;rounded=0;orthogonalLoop=1;jettySize=auto;html=1;exitX=0.5;exitY=1;exitDx=0;exitDy=0;" edge="1" parent="-ztwoPm2OrguGS3gSJhK-8" source="-ztwoPm2OrguGS3gSJhK-19" target="-ztwoPm2OrguGS3gSJhK-11">
          <mxGeometry relative="1" as="geometry" />
        </mxCell>
        <mxCell id="-ztwoPm2OrguGS3gSJhK-19" value="check data" style="rhombus;whiteSpace=wrap;html=1;" vertex="1" parent="-ztwoPm2OrguGS3gSJhK-8">
          <mxGeometry x="160" y="450" width="80" height="80" as="geometry" />
        </mxCell>
        <mxCell id="2cIBxZw03OA3c32o0oA2-2" value="Query &quot;create card application form&quot;" style="rounded=1;whiteSpace=wrap;html=1;" vertex="1" parent="-ztwoPm2OrguGS3gSJhK-8">
          <mxGeometry x="140" y="250" width="120" height="60" as="geometry" />
        </mxCell>
        <mxCell id="unq5F3HCtpJJmsBXHXXX-2" value="POST" style="text;html=1;align=center;verticalAlign=middle;resizable=0;points=[];autosize=1;strokeColor=none;fillColor=none;" vertex="1" parent="-ztwoPm2OrguGS3gSJhK-8">
          <mxGeometry x="-20" y="606" width="60" height="30" as="geometry" />
        </mxCell>
        <mxCell id="2cIBxZw03OA3c32o0oA2-1" style="edgeStyle=orthogonalEdgeStyle;rounded=0;jumpStyle=line;orthogonalLoop=1;jettySize=auto;html=1;exitX=1;exitY=0.5;exitDx=0;exitDy=0;shadow=1;startArrow=none;startFill=0;endArrow=blockThin;endFill=1;" edge="1" parent="-ztwoPm2OrguGS3gSJhK-1" source="_Rerh1Ffgw1ljmtPrs9r-10" target="2cIBxZw03OA3c32o0oA2-2">
          <mxGeometry relative="1" as="geometry">
            <mxPoint x="280" y="300.1428571428571" as="targetPoint" />
          </mxGeometry>
        </mxCell>
        <mxCell id="FSNEAS2BVyc_DA7C3l2N-2" style="edgeStyle=orthogonalEdgeStyle;rounded=0;jumpStyle=line;orthogonalLoop=1;jettySize=auto;html=1;exitX=1;exitY=0.5;exitDx=0;exitDy=0;entryX=0;entryY=0.5;entryDx=0;entryDy=0;shadow=1;startArrow=classic;startFill=1;endArrow=blockThin;endFill=1;" edge="1" parent="-ztwoPm2OrguGS3gSJhK-1" source="FSNEAS2BVyc_DA7C3l2N-1" target="-ztwoPm2OrguGS3gSJhK-11">
          <mxGeometry relative="1" as="geometry" />
        </mxCell>
        <mxCell id="unq5F3HCtpJJmsBXHXXX-1" value="/v1/my-applications" style="edgeLabel;html=1;align=center;verticalAlign=middle;resizable=0;points=[];" vertex="1" connectable="0" parent="FSNEAS2BVyc_DA7C3l2N-2">
          <mxGeometry x="0.1792" relative="1" as="geometry">
            <mxPoint y="10" as="offset" />
          </mxGeometry>
        </mxCell>
        <mxCell id="-ztwoPm2OrguGS3gSJhK-29" value="PISMO API" style="swimlane;html=1;startSize=20;" vertex="1" parent="-ztwoPm2OrguGS3gSJhK-1">
          <mxGeometry x="780" y="20" width="320" height="1250" as="geometry">
            <mxRectangle x="120" y="20" width="40" height="730" as="alternateBounds" />
          </mxGeometry>
        </mxCell>
        <mxCell id="-ztwoPm2OrguGS3gSJhK-30" value="request token" style="rounded=0;whiteSpace=wrap;html=1;" vertex="1" parent="-ztwoPm2OrguGS3gSJhK-29">
          <mxGeometry x="100" y="750" width="120" height="60" as="geometry" />
        </mxCell>
        <mxCell id="-ztwoPm2OrguGS3gSJhK-31" value="create card" style="whiteSpace=wrap;html=1;rounded=0;" vertex="1" parent="-ztwoPm2OrguGS3gSJhK-29">
          <mxGeometry x="100" y="1010" width="120" height="60" as="geometry" />
        </mxCell>
        <mxCell id="wLYbFMPiU5NMxdZjmAGG-1" value="POST" style="text;html=1;align=center;verticalAlign=middle;resizable=0;points=[];autosize=1;strokeColor=none;fillColor=none;" vertex="1" parent="1">
          <mxGeometry x="730" y="778" width="60" height="30" as="geometry" />
        </mxCell>
      </root>
    </mxGraphModel>
  </diagram>
</mxfile>
